<?xml version="1.0" encoding="iso-8859-1"?>
<!-- Generator: Adobe Illustrator 19.0.0, SVG Export Plug-In . SVG Version: 6.00 Build 0)  -->
<svg fill="rgba(54, 196, 209, 1)" version="1.1" id="Capa_1" xmlns="http://www.w3.org/2000/svg" xmlns:xlink="http://www.w3.org/1999/xlink" x="0px" y="0px"
	 viewBox="0 0 463.003 463.003" style="enable-background:new 0 0 463.003 463.003;" xml:space="preserve">
<path d="M456.972,280.147l-37.002-7.4c-0.121-0.024-0.229-0.092-0.303-0.191l-41.366-55.155c-4.414-5.886-11.442-9.4-18.8-9.4
	h-53.63c-6.842-4.93-14.187-9.205-21.947-12.72c2.799-4.085,5.095-8.459,6.857-13.04c0.025-0.012,0.05-0.02,0.075-0.032
	l41.705-20.853c5.875-2.938,10.28-8.245,12.086-14.563l12.356-43.251c0.77-2.69,2.221-5.158,4.199-7.136l27.603-27.603
	c2.929-2.929,2.929-7.678,0-10.606c-2.93-2.929-7.678-2.929-10.607,0l-27.603,27.603c-3.774,3.775-6.546,8.485-8.015,13.62
	l-12.356,43.252c-0.653,2.285-2.247,4.206-4.372,5.268l-30.987,15.493c0.08-1.306,0.136-2.615,0.136-3.933
	c0-12.1-3.441-23.879-9.952-34.066c-2.54-3.973-6.673-6.507-11.339-6.952c-4.797-0.455-9.503,1.323-12.886,4.89
	c-1.065,1.123-2.185,2.169-3.348,3.151l2.566-10.265c1.677-6.711,0.262-13.679-3.547-19.146l14.034-14.033
	c3.335-3.335,7.441-5.951,11.874-7.563l74.715-27.169c4.05-1.473,7.81-3.585,11.177-6.277l35.891-28.713
	c3.234-2.587,3.759-7.307,1.171-10.542c-2.589-3.235-7.309-3.759-10.542-1.171l-35.89,28.712c-2.088,1.67-4.421,2.98-6.934,3.894
	l-74.715,27.169c-6.479,2.356-12.479,6.178-17.354,11.053l-14.978,14.977l-4.846-3.231c-5.223-3.481-11.973-3.482-17.195,0
	l-4.846,3.231L203.08,72.474c-4.875-4.875-10.876-8.697-17.354-11.053L111.01,34.252c-2.513-0.914-4.846-2.224-6.933-3.894
	L68.187,1.645c-3.236-2.588-7.954-2.063-10.542,1.171c-2.588,3.234-2.063,7.954,1.171,10.542l35.892,28.713
	c3.366,2.692,7.126,4.804,11.176,6.277l74.715,27.169c4.433,1.612,8.539,4.227,11.875,7.563l14.033,14.033
	c-3.808,5.468-5.224,12.436-3.547,19.147l2.566,10.264c-1.162-0.981-2.283-2.028-3.347-3.15c-3.382-3.565-8.077-5.346-12.886-4.889
	c-4.665,0.445-8.798,2.979-11.338,6.952c-6.512,10.185-9.953,21.965-9.953,34.065c0,1.317,0.056,2.627,0.136,3.933l-30.987-15.493
	c-2.125-1.063-3.719-2.983-4.371-5.268L120.422,99.42c-1.468-5.134-4.239-9.844-8.014-13.619L84.805,58.199
	c-2.93-2.929-7.678-2.929-10.607,0c-2.929,2.929-2.929,7.678,0,10.606L101.8,96.408c1.979,1.978,3.43,4.445,4.198,7.135
	l12.358,43.253c1.805,6.317,6.21,11.625,12.085,14.562l41.705,20.853c0.025,0.012,0.05,0.02,0.075,0.032
	c1.762,4.581,4.058,8.956,6.856,13.041c-7.76,3.514-15.105,7.789-21.947,12.719h-53.63c-7.357,0-14.386,3.514-18.8,9.4
	l-41.367,55.156c-0.073,0.098-0.181,0.166-0.301,0.189l-37.003,7.4c-4.062,0.813-6.696,4.764-5.884,8.825
	c0.713,3.565,3.845,6.031,7.347,6.031c0.487,0,0.982-0.048,1.479-0.147l37.004-7.401c3.745-0.75,7.069-2.845,9.359-5.899
	l41.366-55.155c1.597-2.129,4.139-3.4,6.8-3.4h36.31c-9.503,9.842-17.441,21.201-23.408,33.679c-0.363,0.165-0.72,0.353-1.062,0.581
	l-39.394,26.261c-7.679,5.121-11.66,14.312-10.143,23.417l13.897,83.39l-14.909,29.819c-1.853,3.705-0.351,8.21,3.354,10.062
	c1.077,0.539,2.222,0.793,3.349,0.793c2.751,0,5.4-1.52,6.714-4.147l16-32c0.709-1.417,0.95-3.023,0.69-4.587l-14.3-85.795
	c-0.549-3.293,0.892-6.618,3.669-8.47l23.609-15.739c-2.528,10-3.877,20.464-3.877,31.238c0,50.182,29.998,96.05,76.423,116.855
	c25.02,11.212,35.947,18.867,44.975,31.504c1.407,1.971,3.681,3.141,6.103,3.141s4.695-1.17,6.103-3.141
	c9.027-12.637,19.955-20.292,44.975-31.504c46.425-20.805,76.423-66.673,76.423-116.855c0-10.774-1.349-21.238-3.877-31.238
	l23.608,15.739c2.778,1.852,4.219,5.177,3.67,8.47l-14.3,85.795c-0.26,1.563-0.019,3.169,0.69,4.587l16,32
	c1.313,2.628,3.963,4.147,6.714,4.147c1.127,0,2.271-0.255,3.349-0.793c3.704-1.852,5.206-6.357,3.354-10.062L383.3,390.329
	l13.897-83.39c1.518-9.104-2.464-18.296-10.144-23.417l-39.393-26.261c-0.343-0.229-0.699-0.416-1.063-0.581
	c-5.967-12.477-13.905-23.837-23.408-33.678h36.31c2.661,0,5.203,1.271,6.8,3.4l41.365,55.154c2.291,3.055,5.615,5.15,9.361,5.9
	l37.003,7.4c0.496,0.099,0.991,0.147,1.479,0.147c3.502,0,6.634-2.465,7.347-6.031C463.669,284.911,461.034,280.96,456.972,280.147z
	 M328.421,368.247c-64.316,11.132-129.523,11.132-193.839,0c-5.873-9.959-10.23-20.796-12.816-32.165
	c36.43,5.968,73.077,8.952,109.735,8.952c36.649,0,73.311-2.986,109.735-8.952C338.651,347.452,334.294,358.289,328.421,368.247z
	 M344.002,311.502c0,3.008-0.133,5.997-0.374,8.964c-74.415,12.746-149.837,12.746-224.252,0c-0.241-2.967-0.374-5.956-0.374-8.964
	c0-8.249,0.901-16.291,2.594-24.04c36.474,6.172,73.189,9.268,109.906,9.268s73.432-3.096,109.906-9.268
	C343.101,295.211,344.002,303.252,344.002,311.502z M125.804,272.961c4.513-12.338,11.132-23.669,19.414-33.563
	c28.636,4.827,57.459,7.248,86.284,7.248s57.648-2.421,86.284-7.248c8.282,9.894,14.901,21.225,19.414,33.563
	C267.033,284.642,195.97,284.642,125.804,272.961z M158.169,226.258c19.707-16.978,45.342-27.256,73.333-27.256
	s53.626,10.278,73.333,27.256C256.109,233.43,206.894,233.43,158.169,226.258z M222.778,133.682l-5.266-21.061
	c-0.869-3.476,0.55-7.147,3.531-9.134l10.181-6.787c0.168-0.112,0.387-0.113,0.555,0l10.181,6.787
	c2.981,1.987,4.4,5.658,3.531,9.134l-5.266,21.061c-0.119,0.475-0.186,0.951-0.211,1.422c-2.764,0.589-5.611,0.897-8.513,0.897
	s-5.749-0.308-8.513-0.897C222.964,134.633,222.897,134.158,222.778,133.682z M183.002,159.502c0-9.232,2.625-18.218,7.592-25.986
	c0.043-0.068,0.069-0.087,0.069-0.087c0.04-0.021,0.317-0.065,0.632,0.267c10.582,11.16,24.861,17.307,40.207,17.307
	s29.625-6.146,40.208-17.306c0.312-0.33,0.592-0.29,0.632-0.268c0,0,0.026,0.019,0.069,0.086c4.966,7.77,7.591,16.756,7.591,25.987
	c0,11.057-3.76,21.657-10.634,30.24c-11.968-3.729-24.687-5.74-37.866-5.74c-13.179,0-25.898,2.01-37.865,5.74
	C186.762,181.158,183.002,170.555,183.002,159.502z M231.502,443.52c-5.326-5.896-11.551-10.961-19.779-15.991
	c6.59,0.375,13.184,0.582,19.779,0.582c6.595,0,13.189-0.207,19.779-0.582C243.052,432.56,236.828,437.624,231.502,443.52z
	 M288.89,408.138c-38.082,6.629-76.694,6.629-114.776,0c-10.292-6.21-19.423-13.9-27.14-22.725
	c28.083,4.12,56.305,6.188,84.528,6.188s56.445-2.068,84.528-6.188C308.313,394.237,299.181,401.928,288.89,408.138z"/>
<g>
</g>
<g>
</g>
<g>
</g>
<g>
</g>
<g>
</g>
<g>
</g>
<g>
</g>
<g>
</g>
<g>
</g>
<g>
</g>
<g>
</g>
<g>
</g>
<g>
</g>
<g>
</g>
<g>
</g>
</svg>
